<svg width="120" height="120" viewBox="0 0 120 120" xmlns="http://www.w3.org/2000/svg">
  <rect width="120" height="120" rx="24" fill="#0D3D2B"/>
  <rect x="10" y="10" width="100" height="100" rx="13" fill="#2EAF7D"/>
  <rect x="10" y="10" width="100" height="26" rx="13" fill="#5DCAA5"/>
  <rect x="10" y="23" width="100" height="13" fill="#5DCAA5"/>
  <circle cx="20" cy="43" r="3.8" fill="white"/>
  <circle cx="33" cy="43" r="3.8" fill="white"/>
  <circle cx="46" cy="43" r="3.8" fill="white"/>
  <circle cx="60" cy="43" r="3.8" fill="white"/>
  <circle cx="74" cy="43" r="3.8" fill="white"/>
  <circle cx="87" cy="43" r="3.8" fill="white"/>
  <circle cx="100" cy="43" r="3.8" fill="white"/>
  <circle cx="18" cy="62" r="3.5" fill="white" opacity="0.45"/>
  <circle cx="18" cy="78" r="3.5" fill="white" opacity="0.45"/>
  <circle cx="102" cy="62" r="3.5" fill="white" opacity="0.45"/>
  <circle cx="102" cy="78" r="3.5" fill="white" opacity="0.45"/>
  <text x="58" y="90" text-anchor="middle" font-family="Georgia, serif" font-size="48" font-weight="700" letter-spacing="-1">
    <tspan font-style="italic" fill="white">e</tspan><tspan fill="#0A3026">b</tspan>
  </text>
  <circle cx="20" cy="103" r="3.5" fill="white" opacity="0.9"/>
  <circle cx="33" cy="103" r="3.5" fill="white" opacity="0.9"/>
  <circle cx="46" cy="103" r="3.5" fill="white" opacity="0.9"/>
  <circle cx="60" cy="103" r="3.5" fill="white" opacity="0.9"/>
  <circle cx="74" cy="103" r="3.5" fill="white" opacity="0.9"/>
  <circle cx="87" cy="103" r="3.5" fill="white" opacity="0.9"/>
  <circle cx="100" cy="103" r="3.5" fill="white" opacity="0.9"/>
</svg>
